<svg width="27" height="24" viewBox="0 0 27 24" fill="none" xmlns="http://www.w3.org/2000/svg">
<path d="M26.25 13.5H22.5V18L21 17.0156L19.5 18V13.5H15.75C15.3281 13.5 15 13.875 15 14.25V23.25C15 23.6719 15.3281 24 15.75 24H26.25C26.625 24 27 23.6719 27 23.25V14.25C27 13.875 26.625 13.5 26.25 13.5ZM8.25 10.5H18.75C19.125 10.5 19.5 10.1719 19.5 9.75V0.75C19.5 0.375 19.125 0 18.75 0H15V4.5L13.5 3.51562L12 4.5V0H8.25C7.82812 0 7.5 0.375 7.5 0.75V9.75C7.5 10.1719 7.82812 10.5 8.25 10.5ZM11.25 13.5H7.5V18L6 17.0156L4.5 18V13.5H0.75C0.328125 13.5 0 13.875 0 14.25V23.25C0 23.6719 0.328125 24 0.75 24H11.25C11.625 24 12 23.6719 12 23.25V14.25C12 13.875 11.625 13.5 11.25 13.5Z" fill="#1371FE"/>
</svg>
