<svg width="20" height="20" viewBox="0 0 20 20" fill="none" xmlns="http://www.w3.org/2000/svg">
<path d="M10 20C4.47581 20 0 15.5242 0 10C0 4.47581 4.47581 0 10 0C15.5242 0 20 4.47581 20 10C20 15.5242 15.5242 20 10 20ZM17.7903 13.871H14.4637C14.1008 15.6613 13.4919 17.1855 12.7218 18.2702C14.9395 17.5363 16.7621 15.9355 17.7903 13.871ZM13.5484 10C13.5484 9.07661 13.4839 8.21774 13.375 7.41936H6.625C6.51613 8.21774 6.45161 9.07661 6.45161 10C6.45161 10.9234 6.51613 11.7823 6.625 12.5806H13.375C13.4839 11.7823 13.5484 10.9234 13.5484 10ZM10 18.7097C11.0847 18.7097 12.4758 16.9315 13.1492 13.871H6.85081C7.52419 16.9315 8.91532 18.7097 10 18.7097ZM7.27823 18.2702C6.5121 17.1895 5.89919 15.6653 5.53629 13.871H2.20968C3.2379 15.9355 5.06048 17.5363 7.27823 18.2702ZM1.29032 10C1.29032 10.8992 1.42742 11.7661 1.68145 12.5806H5.33065C5.22581 11.754 5.16129 10.8952 5.16129 10C5.16129 9.10484 5.22177 8.24597 5.33065 7.41936H1.68145C1.42742 8.23387 1.29032 9.10081 1.29032 10ZM2.20968 6.12903H5.53629C5.89919 4.33871 6.50806 2.81452 7.27823 1.72984C5.06048 2.46371 3.2379 4.06452 2.20968 6.12903ZM10 1.29032C8.91532 1.29032 7.52419 3.06855 6.85081 6.12903H13.1492C12.4758 3.06855 11.0847 1.29032 10 1.29032ZM12.7218 1.72984C13.4879 2.81048 14.1008 4.33468 14.4637 6.12903H17.7903C16.7621 4.06452 14.9395 2.46371 12.7218 1.72984ZM14.6694 7.41936C14.7742 8.24597 14.8387 9.10484 14.8387 10C14.8387 10.8952 14.7782 11.754 14.6694 12.5806H18.3185C18.5726 11.7661 18.7097 10.8992 18.7097 10C18.7097 9.10081 18.5726 8.23387 18.3185 7.41936H14.6694Z" fill="#1371FE"/>
</svg>
