<svg width="18" height="20" viewBox="0 0 18 20" fill="none" xmlns="http://www.w3.org/2000/svg">
<path d="M17.0312 6.25C17.2891 6.25 17.5 6.03906 17.5 5.78125V4.21875C17.5 3.96094 17.2891 3.75 17.0312 3.75H16.25V2.5C16.25 1.12109 15.1289 0 13.75 0H2.5C1.12109 0 0 1.12109 0 2.5V17.5C0 18.8789 1.12109 20 2.5 20H13.75C15.1289 20 16.25 18.8789 16.25 17.5V16.25H17.0312C17.2891 16.25 17.5 16.0391 17.5 15.7812V14.2188C17.5 13.9609 17.2891 13.75 17.0312 13.75H16.25V11.25H17.0312C17.2891 11.25 17.5 11.0391 17.5 10.7812V9.21875C17.5 8.96094 17.2891 8.75 17.0312 8.75H16.25V6.25H17.0312ZM15 17.5C15 18.1875 14.4375 18.75 13.75 18.75H2.5C1.8125 18.75 1.25 18.1875 1.25 17.5V2.5C1.25 1.8125 1.8125 1.25 2.5 1.25H13.75C14.4375 1.25 15 1.8125 15 2.5V17.5ZM8.125 10.625C9.85156 10.625 11.25 9.22656 11.25 7.5C11.25 5.77344 9.85156 4.375 8.125 4.375C6.39844 4.375 5 5.77344 5 7.5C5 9.22656 6.39844 10.625 8.125 10.625ZM8.125 5.625C9.16016 5.625 10 6.46484 10 7.5C10 8.53516 9.16016 9.375 8.125 9.375C7.08984 9.375 6.25 8.53516 6.25 7.5C6.25 6.46484 7.08984 5.625 8.125 5.625ZM9.95312 11.25C9.19141 11.25 9 11.5234 8.125 11.5234C7.25 11.5234 7.05859 11.25 6.29688 11.25C5.46875 11.25 4.66406 11.6172 4.19531 12.3203C3.91406 12.7383 3.75 13.2422 3.75 13.7852V15.3125C3.75 15.4844 3.89062 15.625 4.0625 15.625H4.6875C4.85938 15.625 5 15.4844 5 15.3125V13.7852C5 13.5117 5.08203 13.2461 5.23438 13.0195C5.45312 12.6953 5.85156 12.5039 6.30078 12.5039C6.78516 12.5039 7.11328 12.7773 8.12891 12.7773C9.14062 12.7773 9.46875 12.5039 9.95703 12.5039C10.4062 12.5039 10.8047 12.6992 11.0234 13.0195C11.1758 13.2461 11.2578 13.5117 11.2578 13.7852V15.3125C11.2578 15.4844 11.3984 15.625 11.5703 15.625H12.1953C12.3672 15.625 12.5078 15.4844 12.5078 15.3125V13.7852C12.5078 13.2422 12.3437 12.7383 12.0625 12.3203C11.582 11.6172 10.7773 11.25 9.95312 11.25Z" fill="#1371FE"/>
</svg>
