<svg width="15" height="20" viewBox="0 0 15 20" fill="none" xmlns="http://www.w3.org/2000/svg">
<path d="M12.0109 16.25H8.93116C8.76101 16.25 8.62319 16.3898 8.62319 16.5625V17.1875C8.62319 17.3602 8.76101 17.5 8.93116 17.5H12.0109C12.181 17.5 12.3188 17.3602 12.3188 17.1875V16.5625C12.3188 16.3898 12.181 16.25 12.0109 16.25ZM2.46377 9.375V13.125C2.46377 13.4703 2.77905 13.75 3.16787 13.75H11.6151C12.0039 13.75 12.3192 13.4703 12.3192 13.125V9.375C12.3192 9.02969 12.0039 8.75 11.6151 8.75H3.16787C2.77905 8.75 2.46377 9.02969 2.46377 9.375ZM3.69565 10H11.087V12.5H3.69565V10ZM2.77174 3.75H7.08333C7.25349 3.75 7.3913 3.61016 7.3913 3.4375V2.8125C7.3913 2.63984 7.25349 2.5 7.08333 2.5H2.77174C2.60158 2.5 2.46377 2.63984 2.46377 2.8125V3.4375C2.46377 3.61016 2.60158 3.75 2.77174 3.75ZM2.77174 6.25H7.08333C7.25349 6.25 7.3913 6.11016 7.3913 5.9375V5.3125C7.3913 5.13984 7.25349 5 7.08333 5H2.77174C2.60158 5 2.46377 5.13984 2.46377 5.3125V5.9375C2.46377 6.11016 2.60158 6.25 2.77174 6.25ZM14.2398 3.82734L11.0107 0.550781C10.6643 0.199219 10.1946 0 9.70609 0H1.84744C0.827672 0.00390625 0 0.84375 0 1.87852V18.1254C0 19.1602 0.827672 20 1.84744 20H12.9352C13.9549 20 14.7826 19.1602 14.7826 18.1254V5.15508C14.7826 4.65938 14.5863 4.17891 14.2398 3.82734ZM9.85623 1.27305C9.96402 1.30039 10.0603 1.35508 10.1411 1.43711L13.3702 4.71367C13.451 4.7957 13.5049 4.89336 13.5319 5.00273H9.85623V1.27305ZM13.5511 18.1254C13.5511 18.4691 13.2739 18.7504 12.9352 18.7504H1.84744C1.50867 18.7504 1.2315 18.4691 1.2315 18.1254V1.87852C1.2315 1.53477 1.50867 1.25 1.84744 1.25H8.62434V5.31523C8.62434 5.83477 9.03625 6.25 9.54826 6.25H13.5511V18.1254Z" fill="#1371FE"/>
</svg>
