<svg width="199" height="32" viewBox="0 0 199 32" fill="none" xmlns="http://www.w3.org/2000/svg">
<g clip-path="url(#clip0_2:44)">
<path d="M62.399 1.53787H81.2927C86.4485 1.53787 89.8846 5.00891 89.8846 10.2138C89.9 11.2597 89.6753 12.295 89.228 13.2384C88.7807 14.1818 88.1231 15.0077 87.3067 15.6512C88.4464 16.2009 89.4043 17.072 90.0648 18.1594C90.7253 19.2468 91.0601 20.5041 91.0289 21.7795C91.0289 26.9877 87.5928 30.4588 82.4403 30.4588H62.399V1.53787ZM81.2927 13.3959C83.0124 13.3959 84.1567 12.24 84.1567 10.5061V9.63586C84.1567 7.902 83.0124 6.74609 81.2927 6.74609H68.1401V13.3892L81.2927 13.3959ZM68.1401 25.2539H82.4567C84.1731 25.2539 85.3207 24.098 85.3207 22.3641V21.4939C85.3207 19.76 84.1731 18.6041 82.4567 18.6041H68.1237L68.1401 25.2539Z" fill="#1371FE"/>
<path d="M104.205 6.74609V13.3892H120.81V18.6041H104.205V25.2472H126.538V30.4555H98.4734V1.53787H126.534V6.74609H104.205Z" fill="#1371FE"/>
<path d="M131.687 30.4621L143.426 1.53787H152.017L163.756 30.4621H157.571L155.223 24.6759H140.098L137.744 30.4621H131.687ZM153.103 19.471L147.937 6.74609H147.378L142.225 19.471H153.103Z" fill="#1371FE"/>
<path d="M183.912 13.6849H184.314L193.247 1.53787H198.4V30.4621H192.672V10.2005H192.56C192.184 11.3543 191.644 12.4464 190.956 13.4424L186.947 18.8931H181.219L177.201 13.4557C176.513 12.46 175.974 11.3677 175.6 10.2138H175.485V30.4754H169.77V1.53787H174.923L183.912 13.6849Z" fill="#1371FE"/>
<path d="M30.9748 0C30.9748 0 21.3208 4.98235 21.3208 15.6446C21.3208 26.3068 31.0767 32 31.0767 32L8.67788 26.5726C6.27286 26.0027 4.12051 24.6487 2.55332 22.7198C0.986124 20.7909 0.0912909 18.3943 0.00704956 15.9004C0.00704956 15.7841 0.00704956 15.6645 0.00704956 15.5416C0.00704956 7.92194 7.14561 5.90907 7.14561 5.90907L30.9748 0Z" fill="#1371FE"/>
<path d="M36.7122 27.5591C43.0319 27.5591 48.155 22.3839 48.155 16C48.155 9.61612 43.0319 4.44095 36.7122 4.44095C30.3926 4.44095 25.2695 9.61612 25.2695 16C25.2695 22.3839 30.3926 27.5591 36.7122 27.5591Z" fill="#1371FE"/>
</g>
<defs>
<clipPath id="clip0_2:44">
<rect width="198.4" height="32" fill="white"/>
</clipPath>
</defs>
</svg>
